<svg width="54" height="24" viewBox="0 0 54 24" fill="none" xmlns="http://www.w3.org/2000/svg">
<g filter="url(#filter0_d_5792_7457)">
<path fill-rule="evenodd" clip-rule="evenodd" d="M9.28216 5.55997L8.38737 4H15.2739V12L18.6221 4H30.0861L30.1342 14.7684L34.8968 4H38.7189L31.8324 20H25.8887V5.7601L24.2844 4.85439L21.5471 18.7428L22.3023 20H17.2078L19.4255 10.2399L14.9901 20H12.1614L11.8294 10.4913L9.47218 20H4L6.64108 17.737L9.28216 5.55997ZM39.5296 4H45.6127C50.8877 4 49.9424 8.50802 49.9376 8.51315C49.4252 14.1578 44.8551 13.6446 44.8551 13.6446H40.8453L39.5344 20.0026H34.2883L36.4531 17.6934L39.5296 4ZM44.576 10.9737C44.576 10.9737 46.2935 10.8198 46.6134 9.07761H46.6062C46.9261 7.33547 45.8869 6.71713 43.9987 6.71713H42.1105L41.3889 10.9737H44.576Z" fill="url(#paint0_linear_5792_7457)"/>
</g>
<defs>
<filter id="filter0_d_5792_7457" x="0" y="0" width="54.0063" height="24.0024" filterUnits="userSpaceOnUse" color-interpolation-filters="sRGB">
<feFlood flood-opacity="0" result="BackgroundImageFix"/>
<feColorMatrix in="SourceAlpha" type="matrix" values="0 0 0 0 0 0 0 0 0 0 0 0 0 0 0 0 0 0 127 0" result="hardAlpha"/>
<feOffset/>
<feGaussianBlur stdDeviation="2"/>
<feComposite in2="hardAlpha" operator="out"/>
<feColorMatrix type="matrix" values="0 0 0 0 1 0 0 0 0 0 0 0 0 0 0 0 0 0 0.25 0"/>
<feBlend mode="normal" in2="BackgroundImageFix" result="effect1_dropShadow_5792_7457"/>
<feBlend mode="normal" in="SourceGraphic" in2="effect1_dropShadow_5792_7457" result="shape"/>
</filter>
<linearGradient id="paint0_linear_5792_7457" x1="3" y1="20.0026" x2="50" y2="20.0026" gradientUnits="userSpaceOnUse">
<stop stop-color="#FDD632"/>
<stop offset="1" stop-color="#EDAC3A"/>
</linearGradient>
</defs>
</svg>
